<svg xmlns="http://www.w3.org/2000/svg" xmlns:xlink="http://www.w3.org/1999/xlink" viewBox="0,0,255.99998,255.99998" width="50px" height="50px" fill-rule="nonzero"><g fill-opacity="0" fill="#dddddd" fill-rule="nonzero" stroke="none" stroke-width="1" stroke-linecap="butt" stroke-linejoin="miter" stroke-miterlimit="10" stroke-dasharray="" stroke-dashoffset="0" font-family="none" font-weight="none" font-size="none" text-anchor="none" style="mix-blend-mode: normal"><path d="M0,255.99998v-255.99998h255.99998v255.99998z" id="bgRectangle"></path></g><g fill="#ffffff" fill-rule="nonzero" stroke="none" stroke-width="1" stroke-linecap="butt" stroke-linejoin="miter" stroke-miterlimit="10" stroke-dasharray="" stroke-dashoffset="0" font-family="none" font-weight="none" font-size="none" text-anchor="none" style="mix-blend-mode: normal"><g transform="scale(5.12,5.12)"><path d="M28.5,11c-4.29114,0 -8.02097,2.21978 -10.26953,5.52148c-0.71554,-0.24963 -1.42847,-0.52148 -2.23047,-0.52148c-3.33639,0 -6.05585,2.38648 -6.74805,5.52344c-3.60675,1.17419 -6.25195,4.48858 -6.25195,8.47656c0,4.95852 4.04148,9 9,9h27c4.40644,0 8,-3.59356 8,-8c0,-3.70469 -2.58121,-6.72341 -6.01172,-7.625c-0.06902,-6.83273 -5.63956,-12.375 -12.48828,-12.375zM28.5,13c5.81051,0 10.5,4.68949 10.5,10.5c0,0.12527 -0.01654,0.29679 -0.02734,0.52734c-0.02509,0.51708 0.34856,0.96784 0.86133,1.03906c2.91995,0.40648 5.16602,2.89232 5.16602,5.93359c0,3.32556 -2.67444,6 -6,6h-27c-3.87748,0 -7,-3.12252 -7,-7c0,-3.28626 2.25574,-6.01949 5.29492,-6.78125c0.40061,-0.10004 0.69856,-0.436 0.75,-0.8457c0.30851,-2.46644 2.39537,-4.37305 4.95508,-4.37305c0.78744,0 1.52566,0.18653 2.19336,0.51367c0.46712,0.22911 1.03188,0.06181 1.29883,-0.38477c1.83451,-3.06879 5.16808,-5.12891 9.00781,-5.12891z"></path></g></g></svg>